<svg width="14" height="21" viewBox="0 0 14 21" fill="none" xmlns="http://www.w3.org/2000/svg">
<path d="M8.59965 13.6671C11.3978 13.6671 13.6662 11.3987 13.6662 8.60055C13.6662 5.80241 11.3978 3.53406 8.59965 3.53406C5.80151 3.53406 3.53316 5.80241 3.53316 8.60055C3.53316 11.3987 5.80151 13.6671 8.59965 13.6671Z" fill="#B3E7FF"/>
<path d="M7.33312 13.6662C10.8308 13.6662 13.6662 10.8308 13.6662 7.33312C13.6662 3.83543 10.8308 1 7.33312 1C3.83543 1 1 3.83543 1 7.33312C1 10.8308 3.83543 13.6662 7.33312 13.6662Z" stroke="#171717" stroke-width="0.5" stroke-linecap="round" stroke-linejoin="round"/>
<path d="M3.28175 12.3865L1.9442 20.0001L7.47129 17.4928L12.9984 20.0001L11.6608 12.3781" stroke="#171717" stroke-width="0.5" stroke-linecap="round" stroke-linejoin="round"/>
</svg>
