<svg width="17" height="16" viewBox="0 0 17 16" fill="none" xmlns="http://www.w3.org/2000/svg">
<path fill-rule="evenodd" clip-rule="evenodd" d="M4.32535 0H11.7149C14.0881 0 16.0402 1.95211 16.0402 4.32535V11.6746C16.0402 14.0479 14.0853 16 11.7149 16H4.32535C1.9521 16 0 14.0451 0 11.6746V4.32535C0 1.95211 1.95489 0 4.32535 0ZM12.3254 2.79271C12.568 2.79603 12.7998 2.8939 12.9714 3.0655C13.143 3.23709 13.2408 3.46886 13.2442 3.71151V3.71151C13.2408 3.95411 13.1429 4.18582 12.9713 4.35733C12.7997 4.52883 12.5679 4.62658 12.3254 4.62976V4.62976C12.2043 4.63141 12.0841 4.60879 11.9719 4.56323C11.8597 4.51768 11.7578 4.45011 11.6722 4.36452C11.5865 4.27893 11.5189 4.17705 11.4733 4.0649C11.4277 3.95274 11.405 3.83258 11.4065 3.71151V3.71151C11.405 3.59042 11.4277 3.47023 11.4733 3.35805C11.5189 3.24586 11.5865 3.14394 11.6721 3.05831C11.7578 2.97267 11.8597 2.90505 11.9719 2.85944C12.0841 2.81382 12.2043 2.79113 12.3254 2.79271V2.79271ZM8 3.63499H8.03798C10.4112 3.63499 12.4019 5.62508 12.4019 7.99832C12.4019 10.4101 10.4112 12.3622 8.03798 12.3622H8C5.62675 12.3622 3.67465 10.4101 3.67465 7.99832C3.67465 5.62508 5.62955 3.63499 8 3.63499ZM8 5.12742H8.03798C9.60749 5.12742 10.9089 6.42882 10.9089 7.99832C10.9089 9.60581 9.60749 10.9078 8.03798 10.9078H8C6.4305 10.9078 5.12909 9.60581 5.12909 7.99832C5.12909 6.42882 6.4305 5.12742 8 5.12742ZM4.36333 1.38016H11.6747C12.4662 1.38119 13.225 1.69613 13.7847 2.2559C14.3444 2.81567 14.6592 3.57456 14.6601 4.36612V11.6367C14.659 12.4281 14.3442 13.1869 13.7845 13.7465C13.2249 14.3062 12.4661 14.621 11.6747 14.6221H4.36333C3.57191 14.6209 2.81325 14.306 2.25363 13.7464C1.69402 13.1867 1.3791 12.4281 1.37792 11.6367V4.36389C1.37955 3.57276 1.69466 2.81453 2.25422 2.25527C2.81379 1.69602 3.5722 1.38134 4.36333 1.38016V1.38016Z" fill="#2C4DB9"/>
</svg>
