<svg width="18" height="18" viewBox="0 0 18 18" fill="none" xmlns="http://www.w3.org/2000/svg">
<path fill-rule="evenodd" clip-rule="evenodd" d="M0.335112 5.78136H3.72845V17.1752H0.335112V5.78136ZM2.01067 0C2.55514 0 3.0773 0.216286 3.46229 0.601279C3.84728 0.986272 4.06356 1.50844 4.06356 2.0529C4.06356 2.59736 3.84728 3.11952 3.46229 3.50451C3.0773 3.88951 2.55514 4.1058 2.01067 4.1058C0.879334 4.1058 0 3.18424 0 2.0529C0 0.921559 0.879334 0 2.01067 0ZM5.73979 5.78136H9.09092V7.37381C9.44611 6.84435 9.92634 6.41062 10.4891 6.111C11.0519 5.81138 11.6798 5.65511 12.3174 5.65602H13.2389C15.3756 5.65602 17.0934 7.41603 17.0934 9.51048V17.1779H13.7423V16.1303V11.0192C13.7007 9.72026 12.8207 8.71426 11.5218 8.71426C10.2229 8.71426 9.13381 9.71959 9.09159 11.0192V17.1779H5.74047L5.73979 5.78136Z" fill="#2C4DB9"/>
</svg>
