<svg width="5" height="19" viewBox="0 0 5 19" fill="none" xmlns="http://www.w3.org/2000/svg">
<path d="M2.01458 11.0625C2.87256 11.0625 3.52917 10.341 3.52917 9.5C3.52917 8.65905 2.87256 7.9375 2.01458 7.9375C1.15661 7.9375 0.5 8.65905 0.5 9.5C0.5 10.341 1.15661 11.0625 2.01458 11.0625Z" stroke="#2C4DB9" stroke-linecap="round" stroke-linejoin="round"/>
<path d="M2.01458 3.625C2.87256 3.625 3.52917 2.90345 3.52917 2.0625C3.52917 1.22155 2.87256 0.5 2.01458 0.5C1.15661 0.5 0.5 1.22155 0.5 2.0625C0.5 2.90345 1.15661 3.625 2.01458 3.625Z" stroke="#2C4DB9" stroke-linecap="round" stroke-linejoin="round"/>
<path d="M2.01458 18.4999C2.87256 18.4999 3.52917 17.7784 3.52917 16.9374C3.52917 16.0965 2.87256 15.3749 2.01458 15.3749C1.15661 15.3749 0.5 16.0965 0.5 16.9374C0.5 17.7784 1.15661 18.4999 2.01458 18.4999Z" stroke="#2C4DB9" stroke-linecap="round" stroke-linejoin="round"/>
</svg>
