<svg width="18" height="20" viewBox="0 0 18 20" fill="none" xmlns="http://www.w3.org/2000/svg">
<path d="M14.5008 6.4C15.9919 6.4 17.2008 5.19117 17.2008 3.7C17.2008 2.20883 15.9919 1 14.5008 1C13.0096 1 11.8008 2.20883 11.8008 3.7C11.8008 5.19117 13.0096 6.4 14.5008 6.4Z" stroke="#2C4DB9" stroke-linecap="round" stroke-linejoin="round"/>
<path d="M3.7 12.6998C5.19117 12.6998 6.4 11.491 6.4 9.9998C6.4 8.50864 5.19117 7.2998 3.7 7.2998C2.20883 7.2998 1 8.50864 1 9.9998C1 11.491 2.20883 12.6998 3.7 12.6998Z" stroke="#2C4DB9" stroke-linecap="round" stroke-linejoin="round"/>
<path d="M14.5008 18.9996C15.9919 18.9996 17.2008 17.7908 17.2008 16.2996C17.2008 14.8084 15.9919 13.5996 14.5008 13.5996C13.0096 13.5996 11.8008 14.8084 11.8008 16.2996C11.8008 17.7908 13.0096 18.9996 14.5008 18.9996Z" stroke="#2C4DB9" stroke-linecap="round" stroke-linejoin="round"/>
<path d="M6.03125 11.3584L12.1783 14.9404" stroke="#2C4DB9" stroke-linecap="round" stroke-linejoin="round"/>
<path d="M12.1692 5.05859L6.03125 8.64059" stroke="#2C4DB9" stroke-linecap="round" stroke-linejoin="round"/>
</svg>
