<svg width="20" height="16" viewBox="0 0 20 16" fill="##2C4DB9" xmlns="http://www.w3.org/2000/svg">
<path fill-rule="evenodd" clip-rule="evenodd" d="M4.00789 0.248465C5.95316 0.0823079 8.2489 0 9.99978 0C11.7507 0 14.0074 0.0823079 15.9924 0.248465C18.2874 0.455393 19.4551 0.870019 19.7666 3.31315C19.922 4.43163 20 5.96474 20 7.53862C20 9.1125 19.922 10.6864 19.7666 11.7633C19.4551 14.2488 18.2874 14.6211 15.9924 14.8288C14.0074 15.0357 11.7507 15.0772 9.99978 15.0772C8.2489 15.0772 5.95316 15.0357 4.00789 14.8288C1.71216 14.6211 0.506119 14.2488 0.194674 11.7633C0.0599605 10.3597 -0.00492442 8.94952 0.000291036 7.53862V7.53862C-0.00387525 6.12749 0.061007 4.71709 0.194674 3.31315C0.506119 0.870019 1.71216 0.455393 4.00789 0.248465V0.248465Z" fill="#2C4DB9"/>
<path fill-rule="evenodd" clip-rule="evenodd" d="M7.97754 4.35156L13.1919 7.54086L7.97754 10.7717V4.35156Z" fill="#fff"/>
</svg>
